<svg fill="white" xmlns="http://www.w3.org/2000/svg" xmlns:xlink="http://www.w3.org/1999/xlink" xmlns:a="http://ns.adobe.com/AdobeSVGViewerExtensions/3.0/" version="1.1" x="0px" y="0px" viewBox="0.5 100.5 100 125" enable-background="new 0.5 100.5 100 100" xml:space="preserve"><rect x="0.5" y="0.5" display="none" fill="#000000" stroke="#000000" stroke-miterlimit="10" width="100" height="100"/><rect x="100.5" y="0.5" display="none" fill="#000000" stroke="#000000" stroke-miterlimit="10" width="100" height="100"/><rect x="0.5" y="100.5" display="none" fill="#000000" stroke="#000000" stroke-miterlimit="10" width="100" height="100"/><rect x="100.5" y="100.5" display="none" fill="#000000" stroke="#000000" stroke-miterlimit="10" width="100" height="100"/><rect x="0.5" y="200.5" display="none" fill="#000000" stroke="#000000" stroke-miterlimit="10" width="100" height="100"/><rect x="100.5" y="200.5" display="none" fill="#000000" stroke="#000000" stroke-miterlimit="10" width="100" height="100"/><rect x="47.465" y="164.416" width="4.667" height="16.084"/><rect x="55.569" y="164.417" width="1" height="13.313"/><rect x="58.048" y="169.708" width="1" height="8.021"/><path d="M66.14,165H38.029c-1.301,0-2.36-1.122-2.36-2.5v-43c0-1.378,1.059-2.5,2.36-2.5H66.14c1.301,0,2.36,1.122,2.36,2.5v43  C68.5,163.878,67.441,165,66.14,165z M38.668,162H65.5v-42H38.668V162z"/><path d="M63.5,134.25H41v-9h22.5V134.25z M43,132.25h18.5v-5H43V132.25z"/><circle cx="43.889" cy="139.25" r="2.25"/><circle cx="51.778" cy="139.25" r="2.25"/><circle cx="59.667" cy="139.458" r="2.25"/><circle cx="43.889" cy="145.792" r="2.25"/><circle cx="51.778" cy="145.792" r="2.25"/><circle cx="59.667" cy="146" r="2.25"/><circle cx="43.889" cy="153.292" r="2.25"/><circle cx="51.778" cy="153.292" r="2.25"/><circle cx="59.667" cy="153.5" r="2.25"/><path d="M62.34,182H43.09c-1.149,0-2.083-0.935-2.083-2.083v-17h23.417v17C64.423,181.065,63.489,182,62.34,182z M44.007,179h17.417  v-13.083H44.007V179z"/><rect x="0.5" y="100.5" fill="none" width="100" height="100"/></svg>